<svg width="854" height="172" viewBox="0 0 854 172" fill="none" xmlns="http://www.w3.org/2000/svg">
  <style type="text/css">
    @media (prefers-color-scheme: dark) {
    .words { fill: white; }
    }

    .glitch-layer {
    opacity: 0.6;
    pointer-events: none;
    mix-blend-mode: multiply;
    }

    @media (prefers-color-scheme: dark) {
    .glitch-layer { mix-blend-mode: screen; }
    }

    .gl-r { animation: gl-shift 2.4s steps(1,end) infinite; }
    .gl-g { animation: gl-shift 2.4s steps(1,end) infinite .05s; }
    .gl-b { animation: gl-shift 2.4s steps(1,end) infinite .10s; }

    .gl-r .logo-stroke { stroke: #FF3B7F !important; }
    .gl-r .logo-fill   { fill: #FF3B7F !important; }

    .gl-g .logo-stroke { stroke: #00E7FF !important; }
    .gl-g .logo-fill   { fill: #00E7FF !important; }

    .gl-b .logo-stroke { stroke: #B34DFF !important; }
    .gl-b .logo-fill   { fill: #B34DFF !important; }

    @keyframes gl-shift {
    0%, 12%   { transform: translate(0,0); }
    13%, 16%  { transform: translate(-3px,-1px); }
    17%, 20%  { transform: translate(3px,1px); }
    21%, 22%  { transform: translate(-2px,2px); }
    23%, 100% { transform: translate(0,0); }
    }

    @media (prefers-reduced-motion: reduce) {
    .gl-r, .gl-g, .gl-b { animation: none; }
    }
  </style>

  <defs>
    <linearGradient id="paint0_linear_78_58" x1="5.75857" y1="203.931" x2="446.034" y2="-152.483" gradientUnits="userSpaceOnUse">
      <stop stop-color="#00E7FF"/><stop offset="1" stop-color="#6FC5FF"/>
    </linearGradient>
    <linearGradient id="paint1_linear_78_58" x1="57.9656" y1="191.291" x2="339.971" y2="-62.3644" gradientUnits="userSpaceOnUse">
      <stop stop-color="#00E7FF"/><stop offset="1" stop-color="#6FC5FF"/>
    </linearGradient>
    <linearGradient id="paint2_linear_78_58" x1="57.9656" y1="191.291" x2="339.971" y2="-62.3644" gradientUnits="userSpaceOnUse">
      <stop stop-color="#00E7FF"/><stop offset="1" stop-color="#6FC5FF"/>
    </linearGradient>
    <linearGradient id="paint3_linear_78_58" x1="-65" y1="209.172" x2="375.276" y2="-147.241" gradientUnits="userSpaceOnUse">
      <stop stop-color="#DB4ADB"/><stop offset="0.5" stop-color="#9B7AEF"/><stop offset="1" stop-color="#6FC5FF"/>
    </linearGradient>
    <linearGradient id="paint4_linear_78_58" x1="9.48276" y1="193.912" x2="291.488" y2="-59.7437" gradientUnits="userSpaceOnUse">
      <stop stop-color="#DB4ADB"/><stop offset="0.5" stop-color="#9B7AEF"/><stop offset="1" stop-color="#6FC5FF"/>
    </linearGradient>

    <g id="logo-source">
      <path class="logo-stroke" d="M89.6206 10C49.0944 10 16.2413 42.8531 16.2413 83.3793C16.2413 123.906 49.0944 156.759 89.6206 156.759C130.147 156.759 163 123.906 163 83.3793C163 63.1269 154.792 44.8003 141.508 31.5156" stroke="url(#paint0_linear_78_58)" stroke-width="18" stroke-linecap="round"/>
      <path class="logo-fill" d="M75.7101 76.8182C75.5131 76.0152 75.2025 75.3106 74.7783 74.7045C74.354 74.0833 73.8237 73.5606 73.1873 73.1364C72.5661 72.697 71.8389 72.3712 71.0055 72.1591C70.1873 71.9318 69.2858 71.8182 68.301 71.8182C66.1798 71.8182 64.3692 72.3258 62.8692 73.3409C61.3843 74.3561 60.2479 75.8182 59.4601 77.7273C58.6873 79.6364 58.301 81.9394 58.301 84.6364C58.301 87.3636 58.6722 89.697 59.4146 91.6364C60.157 93.5758 61.2631 95.0606 62.7328 96.0909C64.2025 97.1212 66.0283 97.6364 68.2101 97.6364C70.1343 97.6364 71.7328 97.3561 73.0055 96.7955C74.2934 96.2348 75.2555 95.4394 75.8919 94.4091C76.5283 93.3788 76.8464 92.1667 76.8464 90.7727L79.0283 91H68.3919V82H89.0283V88.4545C89.0283 92.697 88.1267 96.3258 86.3237 99.3409C84.5358 102.341 82.0661 104.644 78.9146 106.25C75.7783 107.841 72.1798 108.636 68.1192 108.636C63.5889 108.636 59.6116 107.674 56.1873 105.75C52.7631 103.826 50.0889 101.083 48.1646 97.5227C46.2555 93.9621 45.301 89.7273 45.301 84.8182C45.301 80.9697 45.8843 77.5606 47.051 74.5909C48.2328 71.6212 49.8692 69.1136 51.9601 67.0682C54.051 65.0076 56.4676 63.4545 59.2101 62.4091C61.9525 61.3485 64.8919 60.8182 68.0283 60.8182C70.7858 60.8182 73.3464 61.2121 75.7101 62C78.0889 62.7727 80.1873 63.8788 82.0055 65.3182C83.8389 66.7424 85.3161 68.4318 86.4373 70.3864C87.5586 72.3409 88.2404 74.4848 88.4828 76.8182H75.7101ZM94.9203 108V61.4545H107.557V97.8182H126.375V108H94.9203Z" fill="url(#paint1_linear_78_58)"/>
      <path class="logo-fill" d="M75.7101 76.8182L75.2245 76.9373L75.3179 77.3182H75.7101V76.8182ZM74.7783 74.7045L74.3653 74.9865L74.3686 74.9913L74.7783 74.7045ZM73.1873 73.1364L72.8985 73.5447L72.91 73.5524L73.1873 73.1364ZM71.0055 72.1591L70.8717 72.641L70.8822 72.6436L71.0055 72.1591ZM62.8692 73.3409L62.5889 72.9268L62.587 72.9282L62.8692 73.3409ZM59.4601 77.7273L58.9979 77.5365L58.9966 77.5397L59.4601 77.7273ZM59.4146 91.6364L58.9477 91.8151L58.9477 91.8151L59.4146 91.6364ZM62.7328 96.0909L62.4458 96.5003L62.4458 96.5003L62.7328 96.0909ZM73.0055 96.7955L72.806 96.337L72.804 96.3379L73.0055 96.7955ZM75.8919 94.4091L75.4665 94.1463L75.4665 94.1463L75.8919 94.4091ZM76.8464 90.7727L76.8982 90.2754L76.3464 90.2179V90.7727H76.8464ZM79.0283 91V91.5L79.0801 90.5027L79.0283 91ZM68.3919 91H67.8919V91.5H68.3919V91ZM68.3919 82V81.5H67.8919V82H68.3919ZM89.0283 82H89.5283V81.5H89.0283V82ZM86.3237 99.3409L85.8946 99.0843L85.8942 99.0849L86.3237 99.3409ZM78.9146 106.25L79.1408 106.696L79.1416 106.695L78.9146 106.25ZM56.1873 105.75L55.9424 106.186L55.9424 106.186L56.1873 105.75ZM48.1646 97.5227L47.724 97.759L47.7247 97.7604L48.1646 97.5227ZM47.051 74.5909L46.5864 74.406L46.5856 74.4081L47.051 74.5909ZM51.9601 67.0682L52.3097 67.4256L52.311 67.4243L51.9601 67.0682ZM59.2101 62.4091L59.3882 62.8763L59.3904 62.8754L59.2101 62.4091ZM75.7101 62L75.5519 62.4744L75.5556 62.4755L75.7101 62ZM82.0055 65.3182L81.6952 65.7102L81.6988 65.713L82.0055 65.3182ZM86.4373 70.3864L86.8711 70.1376L86.8711 70.1376L86.4373 70.3864ZM88.4828 76.8182V77.3182H89.0374L88.9801 76.7665L88.4828 76.8182ZM75.7101 76.8182L76.1957 76.6991C75.9857 75.843 75.6515 75.0802 75.1879 74.4178L74.7783 74.7045L74.3686 74.9913C74.7535 75.541 75.0405 76.1873 75.2245 76.9373L75.7101 76.8182ZM74.7783 74.7045L75.1912 74.4226C74.7301 73.7475 74.1535 73.1795 73.4647 72.7203L73.1873 73.1364L72.91 73.5524C73.4939 73.9417 73.9779 74.4192 74.3654 74.9865L74.7783 74.7045ZM73.1873 73.1364L73.4761 72.7282C72.7988 72.2491 72.0139 71.8998 71.1289 71.6745L71.0055 72.1591L70.8822 72.6436C71.6638 72.8426 72.3335 73.1448 72.8986 73.5446L73.1873 73.1364ZM71.0055 72.1591L71.1393 71.6773C70.2713 71.4362 69.324 71.3182 68.301 71.3182V71.8182V72.3182C69.2476 72.3182 70.1034 72.4274 70.8717 72.6408L71.0055 72.1591ZM68.301 71.8182V71.3182C66.0974 71.3182 64.1851 71.8466 62.5889 72.9268L62.8692 73.3409L63.1494 73.755C64.5533 72.8049 66.2622 72.3182 68.301 72.3182V71.8182ZM62.8692 73.3409L62.587 72.9282C61.0104 74.006 59.8172 75.5512 58.9979 77.5365L59.4601 77.7273L59.9223 77.918C60.6787 76.0852 61.7582 74.7061 63.1514 73.7537L62.8692 73.3409ZM59.4601 77.7273L58.9966 77.5397C58.1935 79.5237 57.801 81.894 57.801 84.6364H58.301H58.801C58.801 81.9848 59.1811 79.749 59.9235 77.9149L59.4601 77.7273ZM58.301 84.6364H57.801C57.801 87.4066 58.1777 89.8039 58.9477 91.8151L59.4146 91.6364L59.8816 91.4576C59.1666 89.5901 58.801 87.3206 58.801 84.6364H58.301ZM59.4146 91.6364L58.9477 91.8151C59.72 93.8326 60.8822 95.4042 62.4458 96.5003L62.7328 96.0909L63.0198 95.6815C61.644 94.717 60.5941 93.3189 59.8816 91.4576L59.4146 91.6364ZM62.7328 96.0909L62.4458 96.5003C64.0163 97.6013 65.948 98.1364 68.2101 98.1364V97.6364V97.1364C66.1085 97.1364 64.3887 96.6411 63.0198 95.6815L62.7328 96.0909ZM68.2101 97.6364V98.1364C70.1788 98.1364 71.8514 97.8502 73.2071 97.253L73.0055 96.7955L72.804 96.3379C71.6142 96.862 70.0898 97.1364 68.2101 97.1364V97.6364ZM73.0055 96.7955L73.2051 97.2539C74.571 96.6593 75.6192 95.8021 76.3173 94.6718L75.8919 94.4091L75.4665 94.1463C74.8919 95.0767 74.0158 95.8104 72.806 96.337L73.0055 96.7955ZM75.8919 94.4091L76.3173 94.6718C77.0094 93.5512 77.3464 92.2452 77.3464 90.7727H76.8464H76.3464C76.3464 92.0882 76.0471 93.2063 75.4665 94.1463L75.8919 94.4091ZM76.8464 90.7727L76.7946 91.27L78.9764 91.4973L79.0283 91L79.0801 90.5027L76.8982 90.2754L76.8464 90.7727ZM79.0283 91V90.5H68.3919V91V91.5H79.0283V91ZM68.3919 91H68.8919V82H68.3919H67.8919V91H68.3919ZM68.3919 82V82.5H89.0283V82V81.5H68.3919V82ZM89.0283 82H88.5283V88.4545H89.0283H89.5283V82H89.0283ZM89.0283 88.4545H88.5283C88.5283 92.6254 87.6424 96.1614 85.8946 99.0843L86.3237 99.3409L86.7528 99.5975C88.611 96.4901 89.5283 92.7685 89.5283 88.4545H89.0283ZM86.3237 99.3409L85.8942 99.0849C84.1552 102.003 81.7562 104.241 78.6876 105.805L78.9146 106.25L79.1416 106.695C82.376 105.047 84.9164 102.679 86.7532 99.5969L86.3237 99.3409ZM78.9146 106.25L78.6884 105.804C75.6323 107.354 72.1134 108.136 68.1192 108.136V108.636V109.136C72.2462 109.136 75.9242 108.328 79.1408 106.696L78.9146 106.25ZM68.1192 108.636V108.136C63.6614 108.136 59.7709 107.19 56.4323 105.314L56.1873 105.75L55.9424 106.186C59.4522 108.158 63.5164 109.136 68.1192 109.136V108.636ZM56.1873 105.75L56.4323 105.314C53.093 103.438 50.4852 100.765 48.6045 97.285L48.1646 97.5227L47.7247 97.7604C49.6925 101.402 52.4331 104.214 55.9424 106.186L56.1873 105.75ZM48.1646 97.5227L48.6053 97.2865C46.7427 93.8126 45.801 89.6624 45.801 84.8182H45.301H44.801C44.801 89.7921 45.7684 94.1117 47.724 97.759L48.1646 97.5227ZM45.301 84.8182H45.801C45.801 81.0197 46.3768 77.6745 47.5164 74.7737L47.051 74.5909L46.5856 74.4081C45.3919 77.4467 44.801 80.9197 44.801 84.8182H45.301ZM47.051 74.5909L47.5155 74.7758C48.6739 71.8649 50.2732 69.4178 52.3097 67.4256L51.9601 67.0682L51.6104 66.7108C49.4651 68.8094 47.7916 71.3775 46.5864 74.406L47.051 74.5909ZM51.9601 67.0682L52.311 67.4243C54.3526 65.4123 56.7105 63.8971 59.3882 62.8763L59.2101 62.4091L59.032 61.9419C56.2248 63.012 53.7493 64.6029 51.6091 66.7121L51.9601 67.0682ZM59.2101 62.4091L59.3904 62.8754C62.0716 61.8385 64.9494 61.3182 68.0283 61.3182V60.8182V60.3182C64.8344 60.3182 61.8334 60.8584 59.0297 61.9427L59.2101 62.4091ZM68.0283 60.8182V61.3182C70.7378 61.3182 73.2444 61.7052 75.552 62.4743L75.7101 62L75.8682 61.5257C73.4484 60.7191 70.8339 60.3182 68.0283 60.3182V60.8182ZM75.7101 62L75.5556 62.4755C77.8823 63.2314 79.9271 64.3105 81.6952 65.7102L82.0055 65.3182L82.3159 64.9262C80.4476 63.4471 78.2954 62.3141 75.8645 61.5245L75.7101 62ZM82.0055 65.3182L81.6988 65.713C83.4823 67.0986 84.9158 68.7388 86.0036 70.6352L86.4373 70.3864L86.8711 70.1376C85.7164 68.1248 84.1954 66.3863 82.3123 64.9233L82.0055 65.3182ZM86.4373 70.3864L86.0036 70.6352C87.0887 72.5267 87.75 74.603 87.9855 76.8698L88.4828 76.8182L88.9801 76.7665C88.7308 74.3667 88.0284 72.1552 86.8711 70.1376L86.4373 70.3864ZM88.4828 76.8182V76.3182H75.7101V76.8182V77.3182H88.4828V76.8182ZM94.9203 108H94.4203V108.5H94.9203V108ZM94.9203 61.4545V60.9545H94.4203V61.4545H94.9203ZM107.557 61.4545H108.057V60.9545H107.557V61.4545ZM107.557 97.8182H107.057V98.3182H107.557V97.8182ZM126.375 97.8182H126.875V97.3182H126.375V97.8182ZM126.375 108V108.5H126.875V108H126.375ZM94.9203 108H95.4203V61.4545H94.9203H94.4203V108H94.9203ZM94.9203 61.4545V61.9545H107.557V61.4545V60.9545H94.9203V61.4545ZM107.557 61.4545H107.057V97.8182H107.557H108.057V61.4545H107.557ZM107.557 97.8182V98.3182H126.375V97.8182V97.3182H107.557V97.8182ZM126.375 97.8182H125.875V108H126.375H126.875V97.8182H126.375ZM126.375 108V107.5H94.9203V108V108.5H126.375V108Z" fill="url(#paint2_linear_78_58)"/>
      <path class="logo-stroke" d="M84.3793 15.2415C43.8531 15.2415 11 48.0946 11 88.6208C11 129.147 43.8531 162 84.3793 162C124.906 162 157.759 129.147 157.759 88.6208C157.759 68.3683 149.551 50.0417 136.266 36.7571" stroke="url(#paint3_linear_78_58)" stroke-width="18" stroke-linecap="round"/>
      <path class="logo-fill" d="M73.0893 79.4389C72.8924 78.6359 72.5818 77.9313 72.1575 77.3253C71.7333 76.7041 71.203 76.1813 70.5666 75.7571C69.9454 75.3177 69.2181 74.9919 68.3848 74.7798C67.5666 74.5525 66.6651 74.4389 65.6803 74.4389C63.559 74.4389 61.7484 74.9465 60.2484 75.9616C58.7636 76.9768 57.6272 78.4389 56.8393 80.348C56.0666 82.2571 55.6803 84.5601 55.6803 87.2571C55.6803 89.9844 56.0515 92.3177 56.7939 94.2571C57.5363 96.1965 58.6424 97.6813 60.1121 98.7116C61.5818 99.7419 63.4075 100.257 65.5893 100.257C67.5136 100.257 69.1121 99.9768 70.3848 99.4162C71.6727 98.8556 72.6348 98.0601 73.2712 97.0298C73.9075 95.9995 74.2257 94.7874 74.2257 93.3935L76.4075 93.6207H65.7712V84.6207H86.4075V91.0753C86.4075 95.3177 85.506 98.9465 83.703 101.962C81.9151 104.962 79.4454 107.265 76.2939 108.871C73.1575 110.462 69.559 111.257 65.4984 111.257C60.9681 111.257 56.9909 110.295 53.5666 108.371C50.1424 106.446 47.4681 103.704 45.5439 100.143C43.6348 96.5828 42.6803 92.348 42.6803 87.4389C42.6803 83.5904 43.2636 80.1813 44.4303 77.2116C45.6121 74.2419 47.2484 71.7344 49.3393 69.6889C51.4303 67.6283 53.8469 66.0753 56.5893 65.0298C59.3318 63.9692 62.2712 63.4389 65.4075 63.4389C68.1651 63.4389 70.7257 63.8328 73.0893 64.6207C75.4681 65.3935 77.5666 66.4995 79.3848 67.9389C81.2181 69.3632 82.6954 71.0525 83.8166 73.0071C84.9378 74.9616 85.6196 77.1056 85.8621 79.4389H73.0893ZM92.2996 110.621V64.0753H104.936V100.439H123.754V110.621H92.2996Z" fill="url(#paint4_linear_78_58)"/>
    </g>
  </defs>

  <g class="words" fill="black">
    <path d="M245.416 92.728C244.989 95.7147 243.816 98.36 241.896 100.664C239.976 102.925 237.523 104.696 234.536 105.976C231.549 107.256 228.221 107.896 224.552 107.896C220.371 107.896 216.68 107.107 213.48 105.528C210.323 103.907 207.848 101.667 206.056 98.808C204.264 95.9494 203.368 92.6427 203.368 88.888C203.368 85.1334 204.264 81.8267 206.056 78.968C207.848 76.1094 210.323 73.8907 213.48 72.312C216.68 70.6907 220.371 69.88 224.552 69.88C228.221 69.88 231.549 70.52 234.536 71.8C237.523 73.08 239.976 74.872 241.896 77.176C243.816 79.4374 244.989 82.0827 245.416 85.112H237.032C236.435 82.3814 235.005 80.248 232.744 78.712C230.483 77.176 227.752 76.408 224.552 76.408C221.992 76.408 219.752 76.92 217.832 77.944C215.912 78.9254 214.419 80.3547 213.352 82.232C212.328 84.0667 211.816 86.2854 211.816 88.888C211.816 91.448 212.328 93.6667 213.352 95.544C214.419 97.4214 215.912 98.872 217.832 99.896C219.752 100.877 221.992 101.368 224.552 101.368C227.795 101.368 230.547 100.579 232.808 99C235.069 97.4214 236.477 95.3307 237.032 92.728H245.416Z" />
    <path d="M251.728 70.52L255.888 71.288L260.048 70.52V107H251.728V70.52ZM255.888 65.976C254.31 65.976 253.008 65.5494 251.984 64.696C250.96 63.8 250.448 62.648 250.448 61.24C250.448 59.832 250.96 58.7014 251.984 57.848C253.008 56.952 254.31 56.504 255.888 56.504C257.51 56.504 258.811 56.952 259.792 57.848C260.816 58.7014 261.328 59.832 261.328 61.24C261.328 62.648 260.816 63.8 259.792 64.696C258.811 65.5494 257.51 65.976 255.888 65.976Z" />
    <path d="M267.125 70.776H275.445L277.621 83.96V107H269.301V82.36L267.125 70.776ZM295.989 70.52V77.816C295.051 77.56 294.027 77.368 292.917 77.24C291.808 77.112 290.763 77.048 289.781 77.048C287.435 77.048 285.344 77.56 283.509 78.584C281.675 79.608 280.224 81.144 279.157 83.192C278.133 85.1974 277.621 87.672 277.621 90.616L275.701 88.248C275.872 85.688 276.299 83.2987 276.981 81.08C277.707 78.8187 278.688 76.856 279.925 75.192C281.205 73.528 282.763 72.2267 284.597 71.288C286.432 70.3494 288.565 69.88 290.997 69.88C291.851 69.88 292.725 69.944 293.621 70.072C294.517 70.1574 295.307 70.3067 295.989 70.52Z" />
    <path d="M339.791 92.728C339.364 95.7147 338.191 98.36 336.271 100.664C334.351 102.925 331.898 104.696 328.911 105.976C325.924 107.256 322.596 107.896 318.927 107.896C314.746 107.896 311.055 107.107 307.855 105.528C304.698 103.907 302.223 101.667 300.431 98.808C298.639 95.9494 297.743 92.6427 297.743 88.888C297.743 85.1334 298.639 81.8267 300.431 78.968C302.223 76.1094 304.698 73.8907 307.855 72.312C311.055 70.6907 314.746 69.88 318.927 69.88C322.596 69.88 325.924 70.52 328.911 71.8C331.898 73.08 334.351 74.872 336.271 77.176C338.191 79.4374 339.364 82.0827 339.791 85.112H331.407C330.81 82.3814 329.38 80.248 327.119 78.712C324.858 77.176 322.127 76.408 318.927 76.408C316.367 76.408 314.127 76.92 312.207 77.944C310.287 78.9254 308.794 80.3547 307.727 82.232C306.703 84.0667 306.191 86.2854 306.191 88.888C306.191 91.448 306.703 93.6667 307.727 95.544C308.794 97.4214 310.287 98.872 312.207 99.896C314.127 100.877 316.367 101.368 318.927 101.368C322.17 101.368 324.922 100.579 327.183 99C329.444 97.4214 330.852 95.3307 331.407 92.728H339.791Z" />
    <path d="M361.271 107.896C357.943 107.896 355.106 107.213 352.759 105.848C350.455 104.483 348.685 102.52 347.447 99.96C346.21 97.4 345.591 94.3494 345.591 90.808V70.776H353.911V89.528C353.911 93.2827 354.765 96.1414 356.471 98.104C358.221 100.024 360.717 100.984 363.959 100.984C366.306 100.984 368.311 100.472 369.975 99.448C371.682 98.424 373.005 96.9734 373.943 95.096C374.882 93.176 375.351 90.9574 375.351 88.44L378.231 90.04C377.89 93.752 376.951 96.952 375.415 99.64C373.879 102.285 371.895 104.333 369.463 105.784C367.031 107.192 364.301 107.896 361.271 107.896ZM377.463 107L375.351 93.944V70.776H383.671V95.224L385.783 107H377.463Z" />
    <path d="M392.978 57.72H401.298V107H392.978V57.72Z" />
    <path d="M443.895 107L442.487 93.56L444.151 88.888L442.487 84.28L443.895 70.776H452.471L450.551 88.888L452.471 107H443.895ZM446.455 88.888C445.645 92.6854 444.301 96.0134 442.423 98.872C440.546 101.731 438.221 103.949 435.447 105.528C432.717 107.107 429.666 107.896 426.295 107.896C422.754 107.896 419.618 107.107 416.887 105.528C414.157 103.907 412.023 101.667 410.487 98.808C408.951 95.9494 408.183 92.6427 408.183 88.888C408.183 85.0907 408.951 81.784 410.487 78.968C412.023 76.1094 414.157 73.8907 416.887 72.312C419.618 70.6907 422.754 69.88 426.295 69.88C429.666 69.88 432.717 70.6694 435.447 72.248C438.221 73.8267 440.546 76.0454 442.423 78.904C444.343 81.72 445.687 85.048 446.455 88.888ZM416.631 88.888C416.631 91.32 417.122 93.4747 418.103 95.352C419.127 97.1867 420.514 98.6374 422.263 99.704C424.013 100.728 426.018 101.24 428.279 101.24C430.583 101.24 432.717 100.728 434.679 99.704C436.642 98.6374 438.37 97.1867 439.863 95.352C441.399 93.4747 442.615 91.32 443.511 88.888C442.615 86.456 441.399 84.3227 439.863 82.488C438.37 80.6107 436.642 79.16 434.679 78.136C432.717 77.0694 430.583 76.536 428.279 76.536C426.018 76.536 424.013 77.0694 422.263 78.136C420.514 79.16 419.127 80.6107 418.103 82.488C417.122 84.3227 416.631 86.456 416.631 88.888Z" />
    <path d="M458.75 70.776H467.07L469.246 83.96V107H460.926V82.36L458.75 70.776ZM487.614 70.52V77.816C486.676 77.56 485.652 77.368 484.542 77.24C483.433 77.112 482.388 77.048 481.406 77.048C479.06 77.048 476.969 77.56 475.134 78.584C473.3 79.608 471.849 81.144 470.782 83.192C469.758 85.1974 469.246 87.672 469.246 90.616L467.326 88.248C467.497 85.688 467.924 83.2987 468.606 81.08C469.332 78.8187 470.313 76.856 471.55 75.192C472.83 73.528 474.388 72.2267 476.222 71.288C478.057 70.3494 480.19 69.88 482.622 69.88C483.476 69.88 484.35 69.944 485.246 70.072C486.142 70.1574 486.932 70.3067 487.614 70.52Z" />
    <path d="M489.276 81.08H504.188V87.928H489.276V81.08Z" />
    <path d="M512.353 70.776H520.673V83.384L520.289 84.664V91.96L520.673 94.2V117.56H512.353V70.776ZM517.473 88.888C518.284 85.048 519.628 81.72 521.505 78.904C523.383 76.0454 525.687 73.8267 528.417 72.248C531.191 70.6694 534.263 69.88 537.633 69.88C541.175 69.88 544.311 70.6907 547.041 72.312C549.772 73.8907 551.905 76.1094 553.441 78.968C554.977 81.784 555.745 85.0907 555.745 88.888C555.745 92.6427 554.977 95.9494 553.441 98.808C551.905 101.667 549.772 103.907 547.041 105.528C544.311 107.107 541.175 107.896 537.633 107.896C534.263 107.896 531.212 107.107 528.481 105.528C525.751 103.949 523.425 101.731 521.505 98.872C519.628 96.0134 518.284 92.6854 517.473 88.888ZM547.297 88.888C547.297 86.456 546.785 84.3227 545.761 82.488C544.78 80.6107 543.415 79.16 541.665 78.136C539.916 77.0694 537.911 76.536 535.649 76.536C533.388 76.536 531.255 77.0694 529.249 78.136C527.287 79.16 525.559 80.6107 524.065 82.488C522.572 84.3227 521.356 86.456 520.417 88.888C521.356 91.32 522.572 93.4747 524.065 95.352C525.559 97.1867 527.287 98.6374 529.249 99.704C531.255 100.728 533.388 101.24 535.649 101.24C537.911 101.24 539.916 100.728 541.665 99.704C543.415 98.6374 544.78 97.1867 545.761 95.352C546.785 93.4747 547.297 91.32 547.297 88.888Z" />
    <path d="M560.938 70.776H569.258L571.434 83.96V107H563.114V82.36L560.938 70.776ZM589.802 70.52V77.816C588.863 77.56 587.839 77.368 586.73 77.24C585.621 77.112 584.575 77.048 583.594 77.048C581.247 77.048 579.157 77.56 577.322 78.584C575.487 79.608 574.037 81.144 572.97 83.192C571.946 85.1974 571.434 87.672 571.434 90.616L569.514 88.248C569.685 85.688 570.111 83.2987 570.794 81.08C571.519 78.8187 572.501 76.856 573.738 75.192C575.018 73.528 576.575 72.2267 578.41 71.288C580.245 70.3494 582.378 69.88 584.81 69.88C585.663 69.88 586.538 69.944 587.434 70.072C588.33 70.1574 589.119 70.3067 589.802 70.52Z" />
    <path d="M613.635 107.896C609.241 107.896 605.379 107.107 602.051 105.528C598.766 103.907 596.185 101.667 594.307 98.808C592.473 95.9494 591.555 92.6427 591.555 88.888C591.555 85.0907 592.473 81.784 594.307 78.968C596.185 76.1094 598.766 73.8907 602.051 72.312C605.379 70.6907 609.241 69.88 613.635 69.88C618.03 69.88 621.87 70.6907 625.155 72.312C628.483 73.8907 631.065 76.1094 632.899 78.968C634.777 81.784 635.715 85.0907 635.715 88.888C635.715 92.6427 634.777 95.9494 632.899 98.808C631.065 101.667 628.483 103.907 625.155 105.528C621.87 107.107 618.03 107.896 613.635 107.896ZM613.635 101.368C616.451 101.368 618.862 100.856 620.867 99.832C622.915 98.808 624.494 97.3787 625.603 95.544C626.713 93.6667 627.267 91.448 627.267 88.888C627.267 86.328 626.713 84.1307 625.603 82.296C624.494 80.4187 622.915 78.968 620.867 77.944C618.862 76.92 616.451 76.408 613.635 76.408C610.862 76.408 608.451 76.92 606.403 77.944C604.355 78.968 602.777 80.4187 601.667 82.296C600.558 84.1307 600.003 86.328 600.003 88.888C600.003 91.448 600.558 93.6667 601.667 95.544C602.777 97.3787 604.355 98.808 606.403 99.832C608.451 100.856 610.862 101.368 613.635 101.368Z" />
    <path d="M675.374 98.104V91.704L675.694 90.552V83.576L675.374 82.296V70.776H683.694V97.336C683.694 101.987 682.713 105.869 680.75 108.984C678.788 112.141 676.1 114.509 672.686 116.088C669.273 117.667 665.348 118.456 660.91 118.456C657.668 118.456 654.681 118.029 651.95 117.176C649.22 116.323 646.574 115.021 644.014 113.272V106.36C646.617 108.408 649.305 109.837 652.078 110.648C654.852 111.501 657.625 111.928 660.398 111.928C665.262 111.928 668.974 110.733 671.534 108.344C674.094 105.955 675.374 102.541 675.374 98.104ZM657.966 104.184C654.638 104.184 651.652 103.48 649.006 102.072C646.361 100.621 644.27 98.616 642.734 96.056C641.198 93.496 640.43 90.488 640.43 87.032C640.43 83.576 641.198 80.568 642.734 78.008C644.27 75.448 646.361 73.464 649.006 72.056C651.652 70.6054 654.638 69.88 657.966 69.88C660.441 69.88 662.724 70.264 664.814 71.032C666.948 71.8 668.846 72.824 670.51 74.104C672.217 75.3414 673.646 76.728 674.798 78.264C675.993 79.7574 676.91 81.2934 677.55 82.872C678.19 84.408 678.51 85.816 678.51 87.096C678.51 88.76 678.02 90.5947 677.038 92.6C676.057 94.5627 674.649 96.4187 672.814 98.168C671.022 99.9174 668.868 101.368 666.35 102.52C663.833 103.629 661.038 104.184 657.966 104.184ZM660.526 98.04C663.556 98.04 666.329 97.1654 668.846 95.416C671.406 93.6667 673.689 90.872 675.694 87.032C673.689 83.1067 671.406 80.2907 668.846 78.584C666.329 76.8347 663.556 75.96 660.526 75.96C658.052 75.96 655.94 76.4294 654.19 77.368C652.441 78.3067 651.097 79.608 650.158 81.272C649.262 82.936 648.814 84.856 648.814 87.032C648.814 89.1654 649.262 91.064 650.158 92.728C651.097 94.392 652.441 95.6934 654.19 96.632C655.94 97.5707 658.052 98.04 660.526 98.04Z" />
    <path d="M690.625 70.776H698.945L701.121 83.96V107H692.801V82.36L690.625 70.776ZM719.49 70.52V77.816C718.551 77.56 717.527 77.368 716.417 77.24C715.308 77.112 714.263 77.048 713.281 77.048C710.935 77.048 708.844 77.56 707.009 78.584C705.175 79.608 703.724 81.144 702.657 83.192C701.633 85.1974 701.121 87.672 701.121 90.616L699.201 88.248C699.372 85.688 699.799 83.2987 700.481 81.08C701.207 78.8187 702.188 76.856 703.425 75.192C704.705 73.528 706.263 72.2267 708.097 71.288C709.932 70.3494 712.065 69.88 714.497 69.88C715.351 69.88 716.225 69.944 717.121 70.072C718.017 70.1574 718.807 70.3067 719.49 70.52Z" />
    <path d="M743.067 107.896C738.843 107.896 735.088 107.107 731.803 105.528C728.518 103.907 725.936 101.667 724.059 98.808C722.182 95.9494 721.243 92.6214 721.243 88.824C721.243 85.0694 722.118 81.784 723.867 78.968C725.659 76.1094 728.112 73.8907 731.227 72.312C734.384 70.6907 737.99 69.88 742.043 69.88C746.096 69.88 749.595 70.7974 752.539 72.632C755.526 74.424 757.83 76.9627 759.451 80.248C761.072 83.5334 761.883 87.3947 761.883 91.832H727.771V85.496H757.723L753.563 87.864C753.435 85.4747 752.859 83.4267 751.835 81.72C750.854 80.0134 749.51 78.712 747.803 77.816C746.139 76.8774 744.155 76.408 741.851 76.408C739.419 76.408 737.286 76.8987 735.451 77.88C733.659 78.8614 732.251 80.248 731.227 82.04C730.203 83.7894 729.691 85.88 729.691 88.312C729.691 91 730.288 93.3254 731.483 95.288C732.72 97.2507 734.448 98.7654 736.667 99.832C738.928 100.856 741.595 101.368 744.667 101.368C747.44 101.368 750.278 100.941 753.179 100.088C756.08 99.192 758.64 97.9547 760.859 96.376V102.392C758.64 104.099 755.931 105.443 752.731 106.424C749.574 107.405 746.352 107.896 743.067 107.896Z" />
    <path d="M806.232 95.992C806.232 98.424 805.55 100.536 804.185 102.328C802.819 104.12 800.75 105.507 797.977 106.488C795.203 107.427 791.726 107.896 787.544 107.896C783.235 107.896 779.502 107.363 776.344 106.296C773.187 105.187 770.734 103.651 768.984 101.688C767.278 99.6827 766.36 97.3787 766.232 94.776H774.68C774.936 96.1414 775.619 97.3574 776.728 98.424C777.88 99.448 779.374 100.237 781.208 100.792C783.086 101.347 785.219 101.624 787.608 101.624C791.064 101.624 793.667 101.219 795.417 100.408C797.166 99.5547 798.04 98.2747 798.04 96.568C798.04 95.416 797.443 94.5414 796.248 93.944C795.096 93.3467 792.899 92.8987 789.656 92.6L782.552 91.96C778.712 91.6187 775.683 90.936 773.464 89.912C771.246 88.8454 769.667 87.5654 768.728 86.072C767.79 84.536 767.32 82.9147 767.32 81.208C767.32 78.7334 768.088 76.664 769.624 75C771.16 73.336 773.294 72.0774 776.024 71.224C778.755 70.328 781.934 69.88 785.56 69.88C789.315 69.88 792.664 70.4134 795.608 71.48C798.552 72.504 800.899 73.9547 802.648 75.832C804.398 77.6667 805.379 79.8 805.592 82.232H797.144C796.974 81.2507 796.462 80.312 795.608 79.416C794.798 78.4774 793.539 77.7094 791.832 77.112C790.168 76.472 787.928 76.152 785.112 76.152C782.126 76.152 779.779 76.536 778.073 77.304C776.409 78.072 775.576 79.2027 775.576 80.696C775.576 81.6347 776.088 82.4454 777.112 83.128C778.136 83.768 780.035 84.216 782.808 84.472L791.961 85.304C795.63 85.6454 798.488 86.3067 800.536 87.288C802.627 88.2267 804.099 89.4427 804.952 90.936C805.806 92.4294 806.232 94.1147 806.232 95.992Z" />
    <path d="M850.482 95.992C850.482 98.424 849.8 100.536 848.435 102.328C847.069 104.12 845 105.507 842.227 106.488C839.453 107.427 835.976 107.896 831.794 107.896C827.485 107.896 823.752 107.363 820.594 106.296C817.437 105.187 814.984 103.651 813.234 101.688C811.528 99.6827 810.61 97.3787 810.482 94.776H818.93C819.186 96.1414 819.869 97.3574 820.978 98.424C822.13 99.448 823.624 100.237 825.458 100.792C827.336 101.347 829.469 101.624 831.858 101.624C835.314 101.624 837.917 101.219 839.667 100.408C841.416 99.5547 842.29 98.2747 842.29 96.568C842.29 95.416 841.693 94.5414 840.498 93.944C839.346 93.3467 837.149 92.8987 833.906 92.6L826.802 91.96C822.962 91.6187 819.933 90.936 817.714 89.912C815.496 88.8454 813.917 87.5654 812.978 86.072C812.04 84.536 811.57 82.9147 811.57 81.208C811.57 78.7334 812.338 76.664 813.874 75C815.41 73.336 817.544 72.0774 820.274 71.224C823.005 70.328 826.184 69.88 829.81 69.88C833.565 69.88 836.914 70.4134 839.858 71.48C842.802 72.504 845.149 73.9547 846.898 75.832C848.648 77.6667 849.629 79.8 849.842 82.232H841.394C841.224 81.2507 840.712 80.312 839.858 79.416C839.048 78.4774 837.789 77.7094 836.082 77.112C834.418 76.472 832.178 76.152 829.362 76.152C826.376 76.152 824.029 76.536 822.323 77.304C820.659 78.072 819.826 79.2027 819.826 80.696C819.826 81.6347 820.338 82.4454 821.362 83.128C822.386 83.768 824.285 84.216 827.058 84.472L836.211 85.304C839.88 85.6454 842.738 86.3067 844.786 87.288C846.877 88.2267 848.349 89.4427 849.202 90.936C850.056 92.4294 850.482 94.1147 850.482 95.992Z" />
  </g>

  <g class="logo-wrapper">
    <use href="#logo-source" class="glitch-layer gl-r" />
    <use href="#logo-source" class="glitch-layer gl-g" />
    <use href="#logo-source" class="glitch-layer gl-b" />
    <use href="#logo-source" />
  </g>
</svg>
